# xmcd
#
# Track frame offsets:
#	150
#	25055
#	65382
#	97387
#	139545
#	198787
#
# Disc length: 3296 seconds
#
# Revision: 1
# Processed by: cddbd v1.5.1PL0 Copyright (c) Steve Scherf et al.
# Submitted via: audiograbber 1.83.01
#
DISCID=4c0cde06
DTITLE=Fritz Pauer Trio - City Blues
DYEAR=1900
DGENRE=Blues
TTITLE0=City Blues
TTITLE1=Spelunke
TTITLE2=Modulation
TTITLE3=Lejos (Far Away)
TTITLE4=Juaneco
TTITLE5=Cherokee Scetches
EXTD=
EXTT0=
EXTT1=
EXTT2=
EXTT3=
EXTT4=
EXTT5=
PLAYORDER=
